# xmcd
# 
# Track frame offsets:
#     150
#     22395
#     41320
#     54413
#     66950
#     84850
#     103791
#     116009
#     125691
#     143806
# 
# Disc length: 2147
# 
# Revision: 1
# Processed by: cddbd v1.5.2PL0 Copyright (c) Steve Scherf et al.
# Submitted via: fre:ac v1.1beta2
# 
DISCID=8a08610a
DTITLE=Ben Kweller - Changing Horses
DYEAR=2009
DGENRE=00-????
TTITLE0=Gypsy Rose
TTITLE1=Old Hat
TTITLE2=Fight
TTITLE3=Hurtin' You
TTITLE4=Ballad of Wendy Baker
TTITLE5=Sawdust Man
TTITLE6=Wantin' Her Again
TTITLE7=Things I Like To Do
TTITLE8=On Her Own
TTITLE9=Homeward Bound
EXTD=
EXTT0=
EXTT1=
EXTT2=
EXTT3=
EXTT4=
EXTT5=
EXTT6=
EXTT7=
EXTT8=
EXTT9=
PLAYORDER=
